<?xml version="1.0" encoding="UTF-8" standalone="no"?>
<!-- Created with Inkscape (http://www.inkscape.org/) -->

<svg
   sodipodi:docname="agronotas_logo.svg"
   inkscape:version="1.2 (dc2aedaf03, 2022-05-15)"
   id="svg5"
   version="1.1"
   viewBox="0 0 30.427001 30.427001"
   height="114.99969"
   width="114.99969"
   inkscape:export-filename="logo.png"
   inkscape:export-xdpi="500.87"
   inkscape:export-ydpi="500.87"
   xmlns:inkscape="http://www.inkscape.org/namespaces/inkscape"
   xmlns:sodipodi="http://sodipodi.sourceforge.net/DTD/sodipodi-0.dtd"
   xmlns="http://www.w3.org/2000/svg"
   xmlns:svg="http://www.w3.org/2000/svg">
  <sodipodi:namedview
     id="namedview7"
     pagecolor="#505050"
     bordercolor="#eeeeee"
     borderopacity="1"
     inkscape:showpageshadow="0"
     inkscape:pageopacity="0"
     inkscape:pagecheckerboard="0"
     inkscape:deskcolor="#505050"
     inkscape:document-units="mm"
     showgrid="false"
     inkscape:zoom="5.6568543"
     inkscape:cx="34.20629"
     inkscape:cy="62.137008"
     inkscape:window-width="1870"
     inkscape:window-height="1015"
     inkscape:window-x="50"
     inkscape:window-y="24"
     inkscape:window-maximized="1"
     inkscape:current-layer="layer1">
    <inkscape:grid
       type="xygrid"
       id="grid61"
       originx="0"
       originy="0" />
  </sodipodi:namedview>
  <defs
     id="defs2" />
  <g
     inkscape:label="Layer 1"
     inkscape:groupmode="layer"
     id="layer1">
    <circle
       style="fill:#afe9c6;stroke:none;stroke-width:0.612459"
       id="path3914"
       cx="-18.120192"
       cy="-12.912205"
       transform="rotate(-168.50971)"
       r="12.355088" />
    <g
       id="g3550"
       transform="matrix(1.6745724,0,0,1.6745724,-10.320408,-7.5461526)">
      <path
         style="fill:#2ca05a;stroke:none;stroke-width:0.264583"
         d="M 13.5345,15.875 H 13.2292 L 6.61458,22.4896 H 7.9375 Z"
         id="path3251" />
      <path
         style="fill:#2ca05a;stroke:none;stroke-width:0.264583"
         d="M 14.4503,15.875 H 14.145 l -3.5617,6.6146 h 1.3229 z"
         id="path3259" />
      <path
         style="fill:#2ca05a;stroke:none;stroke-width:0.264583"
         d="m 15.3662,15.875 h -0.3053 l -0.5088,6.6146 h 1.3229 z"
         id="path3261" />
      <path
         style="fill:#2ca05a;stroke:none;stroke-width:0.264583"
         d="m 16.2821,15.875 h -0.3053 l 2.544,6.6146 h 1.3229 z"
         id="path3263" />
      <path
         style="fill:#2ca05a;stroke:none;stroke-width:0.264583"
         d="m 17.1979,15.875 h -0.3053 l 5.597,6.6146 h 1.3229 z"
         id="path3265" />
    </g>
    <g
       aria-label="agronotas"
       id="text3723"
       style="font-weight:bold;font-size:4.23333px;font-family:'URW Bookman';-inkscape-font-specification:'URW Bookman Bold';letter-spacing:-0.15875px;word-spacing:0px;fill:#217844;stroke-width:0.264583"
       transform="matrix(1.650935,0,0,1.650935,-9.9502077,-9.9153013)">
      <path
         d="m 8.167612,12.063906 c 0.039594,0.09705 0.039594,0.09705 0.028894,0.124679 -0.010701,0.02763 -0.042669,0.05157 -0.069412,0.0503 -0.03222,0.0011 -0.03222,0.0011 -0.1837605,-0.053 L 7.1656392,11.88473 C 6.9564119,11.80371 6.8132705,11.79822 6.6693563,11.86506 c -0.1877252,0.08619 -0.367572,0.316167 -0.488338,0.628034 -0.1972002,0.509251 -0.1104021,0.96505 0.2054127,1.087344 0.1697504,0.06573 0.3449941,-0.01167 0.4091988,-0.177477 0.074905,-0.193437 0.00475,-0.352251 -0.186263,-0.42168 -0.055268,-0.0214 -0.079844,-0.04 -0.088882,-0.07528 -0.02508,-0.06419 -0.019083,-0.161738 0.013019,-0.244639 0.065733,-0.169751 0.1634176,-0.222717 0.3094819,-0.166155 l 0.2013319,0.07796 c -0.064339,0.224767 -0.1021868,0.428013 -0.1166003,0.617637 -0.034438,0.440629 0.098355,0.719033 0.3983792,0.835213 0.3237101,0.125352 0.6386684,-0.04322 0.7838934,-0.418252 0.087135,-0.225018 0.097987,-0.452338 0.041729,-0.705645 0.1590666,-0.04735 0.3052823,-0.190479 0.3771304,-0.37602 0.068791,-0.177646 0.066137,-0.346641 -0.00719,-0.579319 z m -0.4127106,0.78443 c 0.054999,0.139328 0.060206,0.254835 0.017403,0.36537 C 7.7295012,13.324242 7.6215025,13.368674 7.503072,13.322813 7.3333216,13.25708 7.2918292,13.059427 7.360133,12.695467 Z"
         id="path908" />
      <path
         d="m 9.0332525,11.021866 c -0.1933563,0.202794 -0.256509,0.233161 -0.331852,0.171487 -0.039309,-0.03218 -0.047934,-0.08848 -0.015756,-0.127784 0.00804,-0.0098 0.027409,-0.0268 0.046774,-0.04377 0.089373,-0.06908 0.1850076,-0.165862 0.254726,-0.251032 C 9.3384172,10.341635 9.3269202,9.8343831 8.963308,9.5367393 8.7667609,9.3758508 8.5642282,9.3358904 8.2758883,9.4007551 c -0.00267,-0.056891 0.00359,-0.08459 0.043816,-0.133727 0.024133,-0.029482 0.029496,-0.036034 0.1060562,-0.082779 0.033961,-0.021438 0.061964,-0.042281 0.083416,-0.068487 C 8.5976653,9.0076609 8.5881705,8.8521778 8.4833454,8.7663706 8.3588656,8.6644745 8.1694218,8.6954069 8.0514369,8.8395415 7.9629482,8.9476424 7.9054203,9.1248532 7.9131322,9.2624645 7.9175824,9.3372274 7.926207,9.3935243 7.9654881,9.5460358 7.828747,9.652934 7.7679716,9.7071294 7.6928903,9.7988514 c -0.3432289,0.4193006 -0.329949,0.9444236 0.033663,1.2420676 0.183444,0.150163 0.395804,0.198168 0.6338044,0.141333 -0.1090703,0.233494 -0.057599,0.478045 0.1422242,0.641615 0.1146525,0.09385 0.2460023,0.113839 0.4190671,0.0695 -0.054556,0.206997 -0.021827,0.354145 0.1124803,0.464086 0.1736167,0.142118 0.4011812,0.131449 0.6442686,-0.02517 0.1525257,-0.09945 0.3423021,-0.277819 0.4951461,-0.464539 0.230607,-0.281718 0.38735,-0.580133 0.433571,-0.810364 0.04295,-0.232914 -0.06302,-0.511136 -0.25302,-0.666662 C 10.095308,10.178886 9.8084607,10.22856 9.5027866,10.541833 Z M 8.0157143,10.019341 C 8.1444252,9.8621032 8.3028798,9.8823947 8.5583911,10.09155 8.7778687,10.271209 8.823107,10.423126 8.6970777,10.577088 8.5710483,10.73105 8.413188,10.716715 8.1871588,10.531694 7.9381991,10.327902 7.8870035,10.176579 8.0157143,10.019341 Z m 1.7698793,1.186181 c 0.189182,-0.184328 0.2609734,-0.218564 0.3428684,-0.151528 0.108101,0.08849 0.03389,0.279397 -0.2315766,0.6037 -0.225244,0.275166 -0.4647514,0.407358 -0.5761281,0.316188 -0.06224,-0.05095 -0.088432,-0.132567 -0.075301,-0.242175 z"
         id="path910" />
      <path
         d="M 9.7559682,7.9558078 9.5407355,8.1060195 9.0694426,8.5846446 9.2656868,8.8658357 9.3330193,8.8291689 c 0.1707539,-0.088196 0.2501274,-0.055831 0.3895992,0.1514103 l 0.3488785,0.4998952 c 0.139472,0.207241 0.146017,0.2388098 0.03138,0.3704354 l -0.08371,0.094561 0.196244,0.2811912 1.06922,-0.7462127 -0.196244,-0.2811911 -0.117633,0.04596 c -0.163087,0.062196 -0.190461,0.045164 -0.336876,-0.1572318 l -0.470017,-0.67347 c 0.01953,-0.075577 0.04455,-0.1136903 0.100096,-0.1524546 0.04166,-0.029073 0.04166,-0.029073 0.157844,-0.032725 0.09503,-0.00437 0.14638,-0.019562 0.21581,-0.068017 C 10.7973,8.0498724 10.834331,7.8588333 10.727731,7.7060875 10.599323,7.5220982 10.369447,7.4811978 10.192401,7.604759 10.046598,7.7065153 9.9899324,7.8028481 9.8746838,8.1259111 Z"
         id="path912" />
      <path
         d="m 12.117783,6.7224229 c -0.649822,0.2192074 -0.95304,0.7771993 -0.748717,1.3828978 0.221914,0.6578448 0.79049,0.9262183 1.472402,0.6961858 0.67389,-0.2273261 0.97445,-0.7799536 0.763361,-1.4057084 -0.217854,-0.645811 -0.797111,-0.9061138 -1.487046,-0.6733752 z m 0.162087,0.4010286 c 0.252709,-0.085247 0.450127,0.089413 0.600324,0.5346616 0.13802,0.4091474 0.08273,0.669055 -0.165968,0.7529492 -0.25672,0.0866 -0.456796,-0.082695 -0.598875,-0.5038766 -0.146138,-0.4332149 -0.0922,-0.6971338 0.164519,-0.7837342 z"
         id="path914" />
      <path
         d="m 15.01221,6.2393224 -0.2624,-0.00591 -0.662997,0.1078645 -0.0077,0.3428128 0.07599,0.01018 c 0.189879,0.029683 0.234814,0.1026802 0.224957,0.352288 l -0.01373,0.6094449 c -0.0099,0.2496078 -0.02322,0.2789476 -0.193464,0.3174571 l -0.123403,0.026861 -0.0077,0.3428128 1.25698,0.028312 0.0077,-0.3428127 -0.0757,-0.022877 C 15.074986,7.9641386 15.046599,7.908452 15.051938,7.6714456 l 0.01859,-0.8252899 C 15.24672,6.7315609 15.430232,6.6679438 15.5572,6.6708036 c 0.126967,0.00286 0.188354,0.097399 0.18435,0.2751541 l -0.01668,0.7406448 c -0.0053,0.2370064 -0.0362,0.2913585 -0.193654,0.3259217 l -0.07666,0.019445 -0.0077,0.3428128 1.261212,0.028407 0.0077,-0.3428127 -0.126301,-0.032486 C 16.421225,7.9775234 16.4091,7.9518439 16.410492,7.7020454 l 0.01792,-0.7956642 C 16.433561,6.6778394 16.39814,6.5584783 16.282496,6.4288414 16.158674,6.2863172 16.01188,6.2237292 15.783338,6.2185816 15.516706,6.212576 15.290966,6.2710075 15.00811,6.4213095 Z"
         id="path916" />
      <path
         d="m 18.658926,6.840452 c -0.641257,-0.2431246 -1.229757,-0.00445 -1.456374,0.5932609 -0.246126,0.6491743 0.02284,1.2174698 0.695766,1.4726005 0.665008,0.2521293 1.248049,0.015917 1.482169,-0.6015905 0.241624,-0.6372992 -0.04072,-1.2061386 -0.721561,-1.4642709 z m -0.129328,0.4127594 c 0.249378,0.094548 0.291046,0.3548248 0.124461,0.794205 -0.153078,0.4037547 -0.360788,0.5694826 -0.606208,0.476435 -0.253336,-0.096049 -0.300463,-0.353868 -0.142883,-0.7694979 0.162083,-0.4275051 0.371294,-0.5971914 0.62463,-0.5011421 z"
         id="path918" />
      <path
         d="M 21.335724,8.8781507 21.552189,8.5907087 21.0889,8.2418189 21.493816,7.7041331 21.175939,7.4647489 c -0.296121,0.3228457 -0.595125,0.3891455 -0.91989,0.2081678 l -0.201185,0.2671521 0.257007,0.1935447 -0.6443,0.8555628 c -0.155345,0.206282 -0.202938,0.2976287 -0.223477,0.4093485 -0.02747,0.1912929 0.05603,0.3548637 0.255549,0.5051155 0.30435,0.2291977 0.593795,0.2881857 0.968197,0.1991737 L 20.64575,9.7099173 c -0.261681,0.030813 -0.353111,0.025553 -0.441034,-0.040659 -0.0913,-0.068759 -0.08099,-0.1457858 0.05143,-0.3216327 l 0.616287,-0.8183645 z"
         id="path920" />
      <path
         d="m 22.169754,11.861296 c -0.10336,-0.01739 -0.10336,-0.01739 -0.12123,-0.04103 -0.01787,-0.02364 -0.02141,-0.06342 -0.0063,-0.08549 0.01598,-0.028 0.01598,-0.028 0.141752,-0.128387 l 0.665263,-0.502915 c 0.17898,-0.135302 0.258962,-0.254141 0.277835,-0.411694 0.02547,-0.204991 -0.07548,-0.478929 -0.27716,-0.7457096 -0.32932,-0.4356294 -0.762601,-0.6016214 -1.032759,-0.3973919 -0.145209,0.1097734 -0.171581,0.2995283 -0.06436,0.4413611 0.12509,0.1654714 0.297056,0.1893704 0.456597,0.063456 0.04728,-0.03574 0.07602,-0.04686 0.110778,-0.03598 0.06778,0.01244 0.147583,0.06886 0.201193,0.139782 0.109773,0.145209 0.103422,0.256148 -0.02153,0.350604 L 22.32766,10.6381 c -0.157293,-0.172969 -0.310224,-0.312088 -0.463898,-0.42411 -0.356596,-0.2611116 -0.663219,-0.2946581 -0.919868,-0.10064 -0.276912,0.209335 -0.299262,0.565869 -0.05674,0.886682 0.145513,0.192487 0.333118,0.321314 0.578131,0.406742 -0.04342,0.160186 0.0014,0.35983 0.121355,0.518548 0.114879,0.151964 0.25999,0.238619 0.49644,0.298679 z m -0.449949,-0.76368 c -0.147422,-0.02653 -0.248391,-0.08287 -0.319871,-0.17743 -0.07148,-0.09455 -0.05244,-0.209775 0.04886,-0.286361 0.145209,-0.109773 0.335126,-0.04107 0.608704,0.208505 z"
         id="path922" />
      <path
         d="m 24.496151,13.218278 -0.09287,-0.250007 -0.112931,-0.01224 c 0.02357,-0.25262 0.01008,-0.374053 -0.05921,-0.560567 -0.173949,-0.468268 -0.588943,-0.697967 -0.993717,-0.547604 -0.321438,0.119406 -0.445241,0.41829 -0.347487,0.851639 l 0.0626,0.265769 c 0.05568,0.259306 0.04242,0.381648 -0.05282,0.417027 -0.09127,0.03391 -0.222689,-0.08888 -0.294923,-0.283334 -0.05897,-0.158735 -0.06283,-0.351487 -0.0049,-0.499455 0.02199,-0.06236 0.04841,-0.112819 0.124146,-0.249336 l -0.177003,-0.281978 -0.611689,0.407865 0.09729,0.261912 0.116899,0.01077 c -0.01462,0.240261 0.0033,0.373599 0.07406,0.564081 0.184268,0.496047 0.639287,0.760553 1.040093,0.611665 0.154766,-0.05749 0.27699,-0.166118 0.336397,-0.310118 0.06734,-0.146948 0.0721,-0.243551 0.0171,-0.561817 l -0.055,-0.318266 c -0.04287,-0.23697 -0.02371,-0.343438 0.06359,-0.37587 0.0873,-0.03243 0.197517,0.05759 0.256482,0.216327 0.07518,0.202387 0.04038,0.400469 -0.113926,0.629397 l 0.168501,0.307717 z"
         id="path924" />
    </g>
    <path
       style="fill:#217844;stroke-width:0.568017"
       d="m 10.888962,17.917926 v 3.97612 h 0.568019 l -0.03525,-2.840087 7.419473,2e-6 v 2.840085 h 0.568018 l 3e-6,-3.97612 z"
       id="path1908"
       sodipodi:nodetypes="ccccccccc" />
    <path
       style="fill:#2ca05a;stroke-width:0.568017"
       d="m 8.0488752,12.237754 v -0.568019 h 4.5441388 v 1.704052 h -0.568015 v 4.544139 h -0.568018 v -5.088 c -0.0048,-0.316181 -0.280679,-0.606993 -0.553705,-0.592172 z"
       id="path1924"
       sodipodi:nodetypes="cccccccccc" />
    <path
       style="fill:#217844;stroke-width:0.568017"
       d="M 12.024999,13.373787 V 7.6936162 l -0.568018,-0.5680191 -3e-6,-0.5680187 1.136036,1.1360378 v 5.6801708 z"
       id="path1926"
       sodipodi:nodetypes="ccccccc" />
    <path
       style="fill:#16502d;stroke-width:0.568017"
       d="m 19.976035,12.717106 c 0.940274,-0.122285 1.888919,-0.122648 2.846108,0.0014 0.563199,0.0872 0.563199,0.0872 0.563204,0.68701 v 10.193416 c -5e-6,0.567143 -5e-6,0.567143 -0.562081,0.723942 -0.987475,0.22754 -1.926919,0.192398 -2.838337,-0.0081 -0.575707,-0.148732 -0.575707,-0.150812 -0.575707,-0.709497 V 13.374442 c 0,-0.568704 0,-0.568704 0.566813,-0.657366 z"
       id="path1910"
       sodipodi:nodetypes="ccccccccc" />
    <path
       style="fill:#2ca05a;stroke-width:0.568017"
       d="m 18.841204,17.917926 v -5.106603 c -0.005,-0.335017 0.238327,-0.573569 0.560993,-0.573569 h 2.847112 v -0.568019 h -3.976124 c -0.280799,7.34e-4 -0.567269,0.254118 -0.568016,0.568015 l 2e-6,1.136037 h 0.568014 v 4.544139 z"
       id="path1928"
       sodipodi:nodetypes="ccccccccccc" />
    <path
       style="fill:#16502d;stroke-width:0.568017"
       d="m 16.569138,13.373787 v -1.105146 c -5e-6,-0.598906 -5e-6,-0.598906 -0.570816,-0.598906 h -1.701909 c -0.567367,0 -0.567362,0.0035 -0.567362,0.576311 v 1.127741 z"
       id="path1930"
       sodipodi:nodetypes="ccccccc" />
    <path
       style="fill:#37c871;stroke-width:0.568017"
       d="m 12.024999,13.373784 v 6.251296 c -5e-6,0.564914 -2.3e-4,0.564914 0.567908,0.564914 h 5.115813 c 0.564465,0 0.564468,-1.88e-4 0.564468,-0.568135 l -3e-6,-6.248075 c -2.105368,-0.721352 -4.18794,-0.716404 -6.248186,0 z"
       id="path1912"
       sodipodi:nodetypes="ccccccc" />
    <path
       style="fill:#87deaa;stroke-width:0.568017"
       d="m 13.161032,13.941806 c 0.565367,-0.415519 1.134663,-0.495697 1.704049,-0.568019 l 3e-6,5.680174 h -1.704052 z"
       id="path1932"
       sodipodi:nodetypes="ccccc" />
    <path
       style="fill:#87deaa;stroke-width:0.568017"
       d="m 15.433098,13.373787 c 0.640844,0.02615 1.251622,0.11966 1.704054,0.568019 v 5.112153 h -1.704049 z"
       id="path1934"
       sodipodi:nodetypes="ccccc" />
    <circle
       style="fill:#d7f4e3;stroke-width:0.568017"
       id="path2184"
       cx="12.024995"
       cy="14.509821"
       r="0.5680173" />
    <circle
       style="fill:#d7f4e3;stroke-width:0.568017"
       id="path2186"
       cx="18.273184"
       cy="14.509821"
       r="0.5680173" />
    <path
       style="fill:#16502d;stroke-width:0.568017"
       d="m 7.4796493,12.685334 c 0.9402752,-0.122285 1.888919,-0.122648 2.8461077,0.0014 0.563199,0.0872 0.563199,0.0872 0.563204,0.68701 v 10.193414 c -5e-6,0.567144 -5e-6,0.567144 -0.562081,0.723942 C 9.3394061,24.518642 8.399963,24.4835 7.4885445,24.283 6.9128354,24.13432 6.9128354,24.13224 6.9128354,23.573556 V 13.342601 c 0,-0.568703 0,-0.568703 0.5668139,-0.657365 z"
       id="path2326"
       sodipodi:nodetypes="cccccccccc" />
  </g>
</svg>
